<?xml version="1.0" encoding="utf-8"?>
<!-- Generator: Adobe Illustrator 19.2.1, SVG Export Plug-In . SVG Version: 6.00 Build 0)  -->
<svg version="1.1" id="Capa_1" xmlns="http://www.w3.org/2000/svg" xmlns:xlink="http://www.w3.org/1999/xlink" x="0px" y="0px"
	 viewBox="0 0 592.3 154.4" style="enable-background:new 0 0 592.3 154.4;" xml:space="preserve">
<style type="text/css">
	.st0{fill:#BE5518;}
	.st1{fill:#FFFFFF;}
</style>
<g>
	<path class="st0" d="M244.5,129.3h-53.5v2.7h52.2v19.6h-52.2v2.7h53.5c0.8,0,1.4-0.6,1.4-1.4v-22.3
		C245.9,129.9,245.2,129.3,244.5,129.3z M267.9,130.7V153c0,0.8,0.6,1.4,1.4,1.4h53.5v-2.7h-52.2v-8.4h41.4v-2.7h-41.4V132h52.2
		v-2.7h-53.5C268.5,129.3,267.9,129.9,267.9,130.7z M423.2,154.4h2.7v-25.1h-2.7V154.4z M400,140.5h-52.2V132h53.4v-2.7h-54.8
		c-0.8,0-1.4,0.6-1.4,1.4v11.2c0,0.8,0.6,1.4,1.4,1.4h52.2v8.4h-53.5v2.7H400c0.8,0,1.4-0.6,1.4-1.4v-11.2
		C401.4,141.1,400.8,140.5,400,140.5z M502.7,140.5h-28.5v2.7h27.1v8.4h-50.8V132H504v-2.7h-54.8c-0.8,0-1.4,0.6-1.4,1.4V153
		c0,0.8,0.6,1.4,1.4,1.4h53.5c0.8,0,1.4-0.6,1.4-1.4v-11.2C504.1,141.1,503.5,140.5,502.7,140.5z M580.9,129.3h-53.5
		c-0.8,0-1.4,0.6-1.4,1.4v23.7h2.7V132h50.8v22.3h2.7v-23.7C582.2,129.9,581.6,129.3,580.9,129.3z"/>
	<g>
		<path class="st1" d="M586.8,11.1c-3.2,0-5.4-2.4-5.4-5.5c0-3.3,2.5-5.5,5.4-5.5c2.9,0,5.4,2.2,5.4,5.5S589.7,11.1,586.8,11.1z
			 M586.8,1c-2.4,0-4.3,1.9-4.3,4.6c0,2.5,1.6,4.6,4.3,4.6c2.4,0,4.2-1.9,4.2-4.6C591.1,2.8,589.2,1,586.8,1z M585.7,8.7h-1V2.6h2.3
			c1.5,0,2.2,0.5,2.2,1.8c0,1.1-0.7,1.6-1.6,1.7l1.7,2.7h-1.1l-1.6-2.6h-0.9V8.7z M586.9,5.2c0.8,0,1.4-0.1,1.4-1
			c0-0.7-0.7-0.8-1.3-0.8h-1.2v1.8H586.9z"/>
	</g>
	<path class="st1" d="M338.2,0l-46.7,103.3h16.5l13.2-30.1l5.8-13.3l19.4-45.7l19.8,45.7l5.6,13.3l13.2,30.1h17.5L355.7,0H338.2z
		 M52.4,0H0v59.3h15.3v-46h34.3c26.6,0,32.6,19,32.6,37.2c0,18.4-4.5,39.5-29.7,39.5h-2.8v13.3h3.5c31.7,0,44.3-24.3,44.3-53.1
		C97.5,20.3,83.3,0,52.4,0z M195.6,66.1c0,18.7-12.4,26.5-31.4,26.5s-31.4-7.8-31.4-26.5V0h-15.3v64.2c0,27.6,15.3,41.7,46.7,41.7
		c31.4,0,46.7-14,46.7-41.7V46.3h-15.3V66.1z M537.1,0h-52.4v13.3h49.6c26.6,0,32.6,19,32.6,37.2c0,18.4-4.5,39.5-29.7,39.5h-2.8
		v13.3h3.5c31.7,0,44.3-24.3,44.3-53.1C582.2,20.3,568.1,0,537.1,0z M485.8,82.2h-0.3L419.1,0h-17.8v49.4h15.3V21.1h0.3l66.4,82.2
		h17.8V38.2h-15.3V82.2z M262.5,53.2v-0.3c11.3-3.6,17.4-12.9,17.4-25.5c0-13.2-7.5-27.5-28.2-27.5h-39.8v13.3h34.4
		c12.3,0,18.2,6.7,18.2,16.5c0,7.2-3.6,16.3-18.7,16.3h-14.6v13.3h11.9c12.7,0,19,5.6,20,24.2c0.7,12.4,0.7,16.8,3.2,19.7h16.2
		c-3.5-4.1-4.1-8.8-4.9-28.1C276.9,63.1,271.6,54.5,262.5,53.2z"/>
</g>
</svg>
