<?xml version="1.0" encoding="utf-8"?>
<!-- Generator: Adobe Illustrator 19.2.1, SVG Export Plug-In . SVG Version: 6.00 Build 0)  -->
<svg version="1.1" id="Capa_1" xmlns="http://www.w3.org/2000/svg" xmlns:xlink="http://www.w3.org/1999/xlink" x="0px" y="0px"
	 viewBox="0 0 137.2 43.1" style="enable-background:new 0 0 137.2 43.1;" xml:space="preserve">
<style type="text/css">
	.st0{fill:url(#SVGID_1_);}
	.st1{fill:#666566;}
	.st2{fill:#232222;}
</style>
<g>
	<linearGradient id="SVGID_1_" gradientUnits="userSpaceOnUse" x1="45.6525" y1="5.035" x2="0.5816" y2="49.0155">
		<stop  offset="0" style="stop-color:#64A1A0"/>
		<stop  offset="1" style="stop-color:#4585AB"/>
	</linearGradient>
	<path class="st0" d="M5.1,25.5l-4.6,2.6v5.2l4.7-2.6L5.1,25.5z M17.7,11.5L6.8,17.8l0,12.1l10.9-6.2L17.7,11.5z M31,10.7V5.4
		l-6.6-4l0.2,5.3L31,10.7z M19,5v18.7l16.4,9.8V14.8L19,5z M0.4,35.6v5.5l17.4-10.3l17.4,10.3v-5.5L17.9,25.3L0.4,35.6z"/>
	<g>
		<g>
			<path class="st1" d="M59.7,33.6C59.7,33.6,59.8,33.5,59.7,33.6l1.7-0.1c0.9,0,1.7,0.8,1.7,1.7c0,0.9-0.8,1.7-1.7,1.7h-1.4v1.8
				c0,0.1,0,0.1-0.1,0.1h-0.1c-0.1,0-0.1,0-0.1-0.1V33.6z M61.4,36.6c0.7,0,1.4-0.6,1.4-1.4c0-0.7-0.6-1.3-1.4-1.3h-1.3v2.7H61.4z"
				/>
			<path class="st1" d="M65.7,33.6C65.7,33.6,65.7,33.5,65.7,33.6l2-0.1c0.9,0,1.7,0.7,1.7,1.6c0,0.8-0.5,1.4-1.2,1.6l1.1,2
				c0,0.1,0,0.1-0.1,0.1h-0.2c-0.1,0-0.1,0-0.1-0.1l-1.1-2c-0.1,0-0.2,0-0.3,0H66v1.9c0,0.1,0,0.1-0.1,0.1h-0.1
				c-0.1,0-0.1,0-0.1-0.1V33.6z M67.6,36.5c0.7,0,1.3-0.6,1.3-1.3c0-0.7-0.6-1.3-1.3-1.3H66v2.6H67.6z"/>
			<path class="st1" d="M74.4,33.4c1.5,0,2.7,1.2,2.7,2.7c0,1.5-1.2,2.7-2.7,2.7c-1.5,0-2.7-1.2-2.7-2.7
				C71.6,34.7,72.9,33.4,74.4,33.4z M74.4,38.6c1.3,0,2.4-1.1,2.4-2.4c0-1.3-1.1-2.4-2.4-2.4S72,34.9,72,36.2
				C72,37.5,73,38.6,74.4,38.6z"/>
			<path class="st1" d="M79.8,33.6C79.8,33.6,79.8,33.5,79.8,33.6l1.7-0.1c0.9,0,1.7,0.8,1.7,1.7c0,0.9-0.8,1.7-1.7,1.7h-1.4v1.8
				c0,0.1,0,0.1-0.1,0.1h-0.1c-0.1,0-0.1,0-0.1-0.1V33.6z M81.5,36.6c0.7,0,1.4-0.6,1.4-1.4c0-0.7-0.6-1.3-1.4-1.3h-1.3v2.7H81.5z"
				/>
			<path class="st1" d="M85.7,33.6C85.7,33.6,85.8,33.5,85.7,33.6l0.3-0.1c0.1,0,0.1,0,0.1,0.1v5.1c0,0.1-0.1,0.1-0.1,0.1h-0.2
				c-0.1,0-0.1,0-0.1-0.1V33.6z"/>
			<path class="st1" d="M89.1,33.6C89.1,33.6,89.2,33.5,89.1,33.6l3.1-0.1c0.1,0,0.1,0,0.1,0.1v0.1c0,0.1,0,0.1-0.1,0.1h-2.8v2.1
				h2.4c0.1,0,0.1,0,0.1,0.1v0.1c0,0.1,0,0.1-0.1,0.1h-2.4v2.2h2.8c0.1,0,0.1,0,0.1,0.1v0.1c0,0.1,0,0.1-0.1,0.1h-3
				c-0.1,0-0.1,0-0.1-0.1V33.6z"/>
			<path class="st1" d="M95.1,33.6C95.1,33.6,95.1,33.5,95.1,33.6l1.7-0.1c1.5,0,2.7,1.2,2.7,2.6c0,1.5-1.2,2.7-2.7,2.7h-1.6
				c0,0-0.1,0-0.1-0.1V33.6z M96.7,38.5c1.3,0,2.3-1,2.3-2.3c0-1.3-1-2.3-2.3-2.3h-1.3v4.6H96.7z"/>
			<path class="st1" d="M101.3,38.7l2.3-5.3c0,0,0.1-0.1,0.1-0.1h0c0,0,0.1,0,0.1,0.1l2.3,5.3c0,0,0,0.1-0.1,0.1h-0.2
				c-0.1,0-0.1,0-0.1-0.1l-0.6-1.4h-2.9l-0.6,1.4c0,0-0.1,0.1-0.1,0.1L101.3,38.7C101.3,38.8,101.3,38.8,101.3,38.7z M105.1,37.1
				l-1.3-3h0l-1.3,3H105.1z"/>
			<path class="st1" d="M108.5,33.6C108.5,33.6,108.5,33.5,108.5,33.6l1.7-0.1c1.5,0,2.7,1.2,2.7,2.6c0,1.5-1.2,2.7-2.7,2.7h-1.6
				c0,0-0.1,0-0.1-0.1V33.6z M110.1,38.5c1.3,0,2.3-1,2.3-2.3c0-1.3-1-2.3-2.3-2.3h-1.3v4.6H110.1z"/>
			<path class="st1" d="M115.5,33.6C115.5,33.6,115.6,33.5,115.5,33.6l3.1-0.1c0.1,0,0.1,0,0.1,0.1v0.1c0,0.1,0,0.1-0.1,0.1h-2.8
				v2.1h2.4c0.1,0,0.1,0,0.1,0.1v0.1c0,0.1,0,0.1-0.1,0.1h-2.4v2.2h2.8c0.1,0,0.1,0,0.1,0.1v0.1c0,0.1,0,0.1-0.1,0.1h-3
				c-0.1,0-0.1,0-0.1-0.1V33.6z"/>
			<path class="st1" d="M121.2,38.1L121.2,38.1c0.1-0.2,0.2-0.2,0.2-0.1c0.1,0.1,0.6,0.6,1.4,0.6c0.7,0,1.3-0.5,1.3-1
				c0-0.7-0.6-1-1.5-1.3c-0.9-0.3-1.5-0.6-1.5-1.5c0-0.6,0.5-1.3,1.6-1.3c0.7,0,1.3,0.4,1.3,0.4c0,0,0.1,0.1,0,0.2
				c0,0,0,0.1-0.1,0.1c0,0.1-0.1,0.1-0.2,0c0,0-0.5-0.4-1.1-0.4c-0.9,0-1.3,0.6-1.3,1c0,0.6,0.5,0.9,1.3,1.2c1,0.4,1.7,0.7,1.7,1.6
				c0,0.8-0.8,1.3-1.6,1.3c-0.9,0-1.5-0.5-1.6-0.6C121.1,38.2,121.1,38.2,121.2,38.1z"/>
		</g>
	</g>
	<g>
		<g>
			<path class="st2" d="M49,9.4c0-0.3,0.2-0.5,0.5-0.5h3.2c0.3,0,0.5,0.2,0.5,0.5v17.8c0,0.3-0.2,0.5-0.5,0.5h-3.2
				c-0.3,0-0.5-0.2-0.5-0.5V9.4z"/>
			<path class="st2" d="M57.9,9.4c0-0.3,0.2-0.5,0.5-0.5h6.6c5.2,0,9.4,4.2,9.4,9.4c0,5.2-4.3,9.4-9.4,9.4h-6.6
				c-0.3,0-0.5-0.2-0.5-0.5V9.4z M64.7,23.8c3,0,5.2-2.4,5.2-5.5c0-3-2.2-5.4-5.2-5.4h-2.6v10.9H64.7z"/>
			<path class="st2" d="M77.7,9.4c0-0.3,0.2-0.5,0.5-0.5h11.1c0.3,0,0.5,0.2,0.5,0.5v2.9c0,0.3-0.2,0.5-0.5,0.5h-7.5v3.3H88
				c0.3,0,0.5,0.2,0.5,0.5v2.9c0,0.3-0.2,0.5-0.5,0.5h-6.1v3.6h7.5c0.3,0,0.5,0.2,0.5,0.5v2.9c0,0.3-0.2,0.5-0.5,0.5H78.2
				c-0.3,0-0.5-0.2-0.5-0.5V9.4z"/>
			<path class="st2" d="M91,27.1L99.4,9c0.1-0.2,0.3-0.3,0.5-0.3h0.3c0.2,0,0.4,0.1,0.5,0.3l8.4,18.1c0.2,0.4-0.1,0.7-0.5,0.7h-3
				c-0.5,0-0.7-0.2-0.9-0.7l-1-2.1h-7.3l-1,2.2c-0.1,0.3-0.4,0.6-1,0.6h-3C91.1,27.8,90.8,27.4,91,27.1z M102.1,21.3l-2-4.4h0
				l-2,4.4H102.1z"/>
			<path class="st2" d="M111.3,9.4c0-0.3,0.2-0.5,0.5-0.5h3.2c0.3,0,0.5,0.2,0.5,0.5v14.4h6.4c0.3,0,0.5,0.2,0.5,0.5v2.9
				c0,0.3-0.2,0.5-0.5,0.5h-10.1c-0.3,0-0.5-0.2-0.5-0.5V9.4z"/>
			<path class="st2" d="M125,9.4c0-0.3,0.2-0.5,0.5-0.5h11.1c0.3,0,0.5,0.2,0.5,0.5v2.9c0,0.3-0.2,0.5-0.5,0.5h-7.5v3.3h6.1
				c0.3,0,0.5,0.2,0.5,0.5v2.9c0,0.3-0.2,0.5-0.5,0.5h-6.1v3.6h7.5c0.3,0,0.5,0.2,0.5,0.5v2.9c0,0.3-0.2,0.5-0.5,0.5h-11.1
				c-0.3,0-0.5-0.2-0.5-0.5V9.4z"/>
		</g>
	</g>
</g>
</svg>
