<svg id="Capa_1" data-name="Capa 1" xmlns="http://www.w3.org/2000/svg" viewBox="0 0 146.57 28.89"><defs><style>.cls-1{fill:#b9b9b9;}.cls-1,.cls-2,.cls-3{fill-rule:evenodd;}.cls-2{fill:#c13110;}.cls-3{fill:#303643;}</style></defs><title>villber_logo_positivo</title><polygon class="cls-1" points="22.37 0 7.97 0 15.17 19.61 22.37 0"/><polygon class="cls-2" points="30.4 0 17.87 28.89 30.88 28.89 30.88 0 30.4 0"/><polygon class="cls-2" points="0.49 0 0 0 0 28.89 13.29 28.89 0.49 0"/><polygon class="cls-3" points="63.83 4.77 61.83 4.77 54.01 25.92 52.19 25.92 43.38 4.77 41.44 4.77 41.44 3.92 53.43 3.92 53.43 4.77 51.02 4.77 56.18 17.58 60.91 4.77 58.3 4.77 58.3 3.92 63.83 3.92 63.83 4.77"/><path class="cls-3" d="M70.81,9.18a3.25,3.25,0,0,1-4.55,0,3.06,3.06,0,0,1-.94-2.26,3.06,3.06,0,0,1,.94-2.26,3.1,3.1,0,0,1,2.27-.94,3.06,3.06,0,0,1,2.28,1,3.11,3.11,0,0,1,.92,2.24,3.07,3.07,0,0,1-.92,2.27h0ZM73.32,25.5H63.65V24.65h1.74V13.24H63.65V12.39h7.89V24.65h1.78V25.5Z"/><polygon class="cls-3" points="83.48 25.5 73.81 25.5 73.81 24.65 75.55 24.65 75.55 4.77 73.81 4.77 73.81 3.92 81.7 3.92 81.7 24.65 83.48 24.65 83.48 25.5"/><polygon class="cls-3" points="93.65 25.5 83.98 25.5 83.98 24.65 85.72 24.65 85.72 4.77 83.98 4.77 83.98 3.92 91.87 3.92 91.87 24.65 93.65 24.65 93.65 25.5"/><path class="cls-3" d="M105.37,20a16.89,16.89,0,0,1-.19,3q-0.28,1.45-1.11,1.45-1.14,0-1.76-1.88a11.8,11.8,0,0,1-.46-3.55,11.83,11.83,0,0,1,.6-3.76q0.6-1.79,1.52-1.79a1.26,1.26,0,0,1,1.19,1.14,10.56,10.56,0,0,1,.21,2.53v1.76c0,0.23,0,.6,0,1.11h0Zm6.78-.75a5.13,5.13,0,0,0,0-.66,6.5,6.5,0,0,0-1-3.58,6.76,6.76,0,0,0-2.31-2.3,5.52,5.52,0,0,0-2.77-.76,4.89,4.89,0,0,0-.65,0,5.57,5.57,0,0,0-2.08.68A4,4,0,0,0,102,14.06V3.92H94.15V4.77h1.74V24.65H94.15V25.5h7.7V23.6a4,4,0,0,0,3.55,2.25,3.73,3.73,0,0,0,.56,0,5.17,5.17,0,0,0,2.73-.76,7.13,7.13,0,0,0,2.24-2.27A7.46,7.46,0,0,0,112,20.08C112.09,19.71,112.13,19.45,112.15,19.3Z"/><path class="cls-3" d="M123.35,17.3h-2.77V16.46a17.23,17.23,0,0,1,.12-2.72,1.33,1.33,0,0,1,.62-0.87A1.59,1.59,0,0,1,122,12.7a1.66,1.66,0,0,1,.74.2,1.06,1.06,0,0,1,.52.8,17.86,17.86,0,0,1,.12,2.73l-0.06.87h0Zm5.89,3.48-0.25.64a7.58,7.58,0,0,1-1.46,2.19,5.17,5.17,0,0,1-1.83,1.19,5.58,5.58,0,0,1-2,.38,3,3,0,0,1-2.28-.89,3.29,3.29,0,0,1-.83-2.34l0-3.81h9.25L129.49,16a5.49,5.49,0,0,0-2.51-3A9.32,9.32,0,0,0,122.24,12a10.9,10.9,0,0,0-3.57.51,7.08,7.08,0,0,0-2.57,1.59,6.91,6.91,0,0,0-1.63,2.28,6.55,6.55,0,0,0,.17,5.44,6.14,6.14,0,0,0,2,2.3,9.69,9.69,0,0,0,4.62,1.72,14.55,14.55,0,0,0,1.6.09,8.14,8.14,0,0,0,4.41-1.06,6.39,6.39,0,0,0,2.5-3.17l0.18-.7Z"/><path class="cls-3" d="M146.54,15.87a3.07,3.07,0,0,1-3.12,2.7,3.38,3.38,0,0,1-2.18-.75,2.14,2.14,0,0,1-.94-1.67,1,1,0,0,1,0-.31l0.43-1.63V13.87a0.25,0.25,0,0,0-.25-0.15,2.24,2.24,0,0,0-.76.58,2.88,2.88,0,0,0-.56.87,5.64,5.64,0,0,0-.4,1.55v7.92h1.78V25.5H130.9V24.65h1.74V13.24H130.9V12.39h7.7v2.16a4,4,0,0,1,3.52-2.36,6.1,6.1,0,0,1,.65,0,4,4,0,0,1,2.73.92,2.92,2.92,0,0,1,1.07,2.3A2.83,2.83,0,0,1,146.54,15.87Z"/></svg>