<svg version="1.1" id="Capa_1" xmlns="http://www.w3.org/2000/svg" xmlns:xlink="http://www.w3.org/1999/xlink" x="0px" y="0px"
	 viewBox="0 0 146.6 28.9" style="enable-background:new 0 0 146.6 28.9;" xml:space="preserve">
<style type="text/css">
	.st0{fill-rule:evenodd;clip-rule:evenodd;fill:#FFFFFF;}
	.st1{fill-rule:evenodd;clip-rule:evenodd;fill:#C13110;}
</style>
<polygon class="st0" points="22.4,0 8,0 15.2,19.6 "/>
<polygon class="st1" points="30.4,0 17.9,28.9 30.9,28.9 30.9,0 "/>
<polygon class="st1" points="0.5,0 0,0 0,28.9 13.3,28.9 "/>
<polygon class="st0" points="63.8,4.8 61.8,4.8 54,25.9 52.2,25.9 43.4,4.8 41.4,4.8 41.4,3.9 53.4,3.9 53.4,4.8 51,4.8 56.2,17.6 
	60.9,4.8 58.3,4.8 58.3,3.9 63.8,3.9 "/>
<path class="st0" d="M70.8,9.2c-0.6,0.6-1.4,0.9-2.3,0.9c-0.9,0-1.6-0.3-2.3-0.9c-0.6-0.6-0.9-1.4-0.9-2.3s0.3-1.6,0.9-2.3
	c0.6-0.6,1.4-0.9,2.3-0.9c0.9,0,1.7,0.3,2.3,1c0.6,0.6,0.9,1.4,0.9,2.2C71.7,7.8,71.4,8.6,70.8,9.2L70.8,9.2z M73.3,25.5h-9.7v-0.9
	h1.7V13.2h-1.7v-0.9h7.9v12.3h1.8V25.5z"/>
<polygon class="st0" points="83.5,25.5 73.8,25.5 73.8,24.6 75.6,24.6 75.6,4.8 73.8,4.8 73.8,3.9 81.7,3.9 81.7,24.6 83.5,24.6 "/>
<polygon class="st0" points="93.7,25.5 84,25.5 84,24.6 85.7,24.6 85.7,4.8 84,4.8 84,3.9 91.9,3.9 91.9,24.6 93.7,24.6 "/>
<path class="st0" d="M105.4,20c0,1.4-0.1,2.4-0.2,3c-0.2,1-0.6,1.4-1.1,1.4c-0.8,0-1.3-0.6-1.8-1.9c-0.3-1-0.5-2.1-0.5-3.5
	c0-1.3,0.2-2.6,0.6-3.8c0.4-1.2,0.9-1.8,1.5-1.8c0.6,0,1,0.4,1.2,1.1c0.1,0.5,0.2,1.4,0.2,2.5c0,0.3,0,0.6,0,0.9c0,0.3,0,0.6,0,0.9
	C105.4,19.2,105.4,19.5,105.4,20L105.4,20z M112.2,19.3c0-0.2,0-0.4,0-0.7c0-1.4-0.3-2.6-1-3.6c-0.7-1-1.4-1.8-2.3-2.3
	c-0.9-0.5-1.8-0.8-2.8-0.8c-0.3,0-0.5,0-0.6,0c-0.8,0.1-1.5,0.3-2.1,0.7c-0.5,0.3-1,0.8-1.3,1.4V3.9h-7.9v0.9h1.7v19.9h-1.7v0.9h7.7
	v-1.9c0.6,1.3,1.8,2.1,3.5,2.3c0.1,0,0.3,0,0.6,0c1,0,1.9-0.3,2.7-0.8c0.8-0.5,1.6-1.3,2.2-2.3c0.6-0.8,0.9-1.8,1.1-2.8
	C112.1,19.7,112.1,19.5,112.2,19.3z"/>
<path class="st0" d="M123.4,17.3h-2.8v-0.8c0-1.4,0-2.3,0.1-2.7c0.1-0.4,0.3-0.7,0.6-0.9c0.2-0.1,0.5-0.2,0.7-0.2
	c0.2,0,0.5,0.1,0.7,0.2c0.3,0.1,0.4,0.4,0.5,0.8c0.1,0.4,0.1,1.3,0.1,2.7L123.4,17.3L123.4,17.3z M129.2,20.8l-0.2,0.6
	c-0.4,0.9-0.9,1.6-1.5,2.2c-0.5,0.5-1.2,0.9-1.8,1.2c-0.7,0.3-1.3,0.4-2,0.4c-1,0-1.7-0.3-2.3-0.9c-0.6-0.6-0.8-1.4-0.8-2.3l0-3.8
	h9.2l-0.3-2.1c-0.5-1.3-1.3-2.3-2.5-3c-1.2-0.7-2.8-1.1-4.7-1.1c-1.4,0-2.6,0.2-3.6,0.5c-1,0.3-1.8,0.9-2.6,1.6
	c-0.7,0.7-1.3,1.5-1.6,2.3c-0.3,0.8-0.5,1.7-0.5,2.6c0,1,0.2,2,0.7,2.9c0.5,0.9,1.1,1.7,2,2.3c1.3,0.9,2.9,1.5,4.6,1.7
	c0.6,0.1,1.1,0.1,1.6,0.1c1.8,0,3.3-0.4,4.4-1.1c1.1-0.7,1.9-1.8,2.5-3.2l0.2-0.7L129.2,20.8z"/>
<path class="st0" d="M146.5,15.9c-0.1,0.8-0.4,1.4-1,1.9c-0.6,0.5-1.3,0.8-2.1,0.8c-0.8,0-1.5-0.3-2.2-0.8c-0.6-0.5-0.9-1.1-0.9-1.7
	c0-0.1,0-0.2,0-0.3l0.4-1.6v-0.3c0-0.1-0.1-0.2-0.3-0.2c-0.2,0.1-0.4,0.3-0.8,0.6c-0.2,0.2-0.4,0.5-0.6,0.9
	c-0.2,0.4-0.3,0.9-0.4,1.6v0.6v7.3h1.8v0.9h-9.7v-0.9h1.7V13.2h-1.7v-0.9h7.7v2.2c0.6-1.4,1.8-2.2,3.5-2.4c0.1,0,0.4,0,0.6,0
	c1.1,0,2,0.3,2.7,0.9c0.7,0.6,1.1,1.4,1.1,2.3C146.6,15.6,146.6,15.8,146.5,15.9z"/>
</svg>
